<svg xmlns="http://www.w3.org/2000/svg" viewBox="0 0 256 384" shape-rendering="crispEdges">
  <rect width="256" height="384" fill="transparent"/>
  <rect x="34" y="20" width="188" height="340" fill="#202443"/>
  <rect x="50" y="36" width="156" height="48" fill="#ff2e88"/>
  <text x="128" y="67" text-anchor="middle" font-family="monospace" font-size="26" font-weight="700" fill="#050511">ADVENTURE</text>
  <rect x="54" y="104" width="148" height="116" fill="#00fff5"/>
  <rect x="66" y="116" width="124" height="92" fill="#050511"/>
  <rect x="94" y="150" width="24" height="24" fill="#f9e547"/>
  <rect x="130" y="150" width="24" height="24" fill="#39ff14"/>
  <rect x="154" y="174" width="16" height="16" fill="#b14dff"/>
  <rect x="58" y="244" width="140" height="48" fill="#11162c"/>
  <rect x="78" y="260" width="28" height="28" fill="#f9e547"/>
  <rect x="126" y="260" width="20" height="20" fill="#ff2e88"/>
  <rect x="158" y="260" width="20" height="20" fill="#00fff5"/>
  <rect x="50" y="320" width="156" height="40" fill="#050511"/>
  <rect x="62" y="360" width="36" height="16" fill="#141933"/>
  <rect x="158" y="360" width="36" height="16" fill="#141933"/>
</svg>
