<svg xmlns="http://www.w3.org/2000/svg" viewBox="0 0 1280 720" shape-rendering="crispEdges">
  <rect width="1280" height="720" fill="#050511"/>
  <rect y="468" width="1280" height="252" fill="#101024"/>
  <rect x="0" y="0" width="1280" height="468" fill="#080818"/>
  <g opacity=".22">
    <rect x="70" y="96" width="160" height="320" fill="#16142f"/>
    <rect x="274" y="72" width="104" height="360" fill="#11162c"/>
    <rect x="1036" y="104" width="140" height="318" fill="#171331"/>
    <rect x="1056" y="142" width="28" height="28" fill="#b14dff"/>
    <rect x="1120" y="210" width="28" height="28" fill="#f9e547"/>
  </g>
  <g>
    <rect x="430" y="182" width="420" height="336" fill="#14112d"/>
    <rect x="462" y="214" width="356" height="304" fill="#080818"/>
    <rect x="484" y="236" width="312" height="54" fill="#b14dff"/>
    <text x="640" y="272" text-anchor="middle" font-family="monospace" font-size="34" font-weight="700" fill="#050511">VINYL VAULT</text>
    <rect x="514" y="330" width="252" height="188" fill="#121024"/>
    <circle cx="640" cy="424" r="64" fill="#050511"/>
    <circle cx="640" cy="424" r="42" fill="#2a2552"/>
    <circle cx="640" cy="424" r="14" fill="#f9e547"/>
    <rect x="742" y="358" width="12" height="118" fill="#ff2e88"/>
    <rect x="754" y="464" width="40" height="12" fill="#ff2e88"/>
  </g>
  <g>
    <rect x="190" y="220" width="124" height="172" fill="#050511"/>
    <rect x="206" y="236" width="92" height="124" fill="#0f0f23"/>
    <path d="M216 306h8v-18h8v-22h8v-12h8v32h8v-48h8v60h8v-40h8v48h8v-20h8v34h8" fill="none" stroke="#e0e0ff" stroke-width="8"/>
    <rect x="204" y="376" width="96" height="8" fill="#b14dff"/>
  </g>
  <g>
    <rect x="530" y="570" width="220" height="12" fill="#b14dff" opacity=".45"/>
    <rect x="570" y="624" width="140" height="8" fill="#f9e547" opacity=".4"/>
    <rect x="604" y="674" width="72" height="6" fill="#ff2e88" opacity=".35"/>
  </g>
  <g opacity=".32">
    <rect width="1280" height="720" fill="url(#grain)"/>
  </g>
  <defs>
    <pattern id="grain" width="16" height="16" patternUnits="userSpaceOnUse">
      <rect width="16" height="16" fill="transparent"/>
      <rect x="2" y="3" width="2" height="2" fill="#b14dff"/>
      <rect x="11" y="9" width="2" height="2" fill="#f9e547"/>
    </pattern>
  </defs>
</svg>
