<svg xmlns="http://www.w3.org/2000/svg" viewBox="0 0 1280 720" shape-rendering="crispEdges">
  <rect width="1280" height="720" fill="#070716"/>
  <rect y="470" width="1280" height="250" fill="#0d1024"/>
  <path d="M0 520h1280v32H0z" fill="#141933"/>
  <path d="M0 650h1280v70H0z" fill="#050511"/>
  <path d="M0 612h1280v8H0z" fill="#00fff5" opacity=".22"/>
  <path d="M0 666h1280v5H0z" fill="#ff2e88" opacity=".24"/>
  <g opacity=".26">
    <rect x="72" y="108" width="96" height="286" fill="#141933"/>
    <rect x="96" y="136" width="16" height="20" fill="#00fff5"/>
    <rect x="128" y="182" width="16" height="20" fill="#b14dff"/>
    <rect x="208" y="76" width="138" height="370" fill="#10142c"/>
    <rect x="230" y="120" width="18" height="24" fill="#ff2e88"/>
    <rect x="282" y="196" width="18" height="24" fill="#00fff5"/>
    <rect x="1030" y="122" width="112" height="286" fill="#12172f"/>
    <rect x="1062" y="164" width="18" height="24" fill="#f9e547"/>
    <rect x="1110" y="216" width="18" height="24" fill="#00fff5"/>
    <rect x="1170" y="72" width="58" height="360" fill="#10142c"/>
    <rect x="1186" y="118" width="14" height="22" fill="#b14dff"/>
  </g>
  <g>
    <rect x="420" y="188" width="438" height="332" fill="#11162c"/>
    <rect x="396" y="164" width="486" height="64" fill="#050511"/>
    <rect x="412" y="180" width="454" height="32" fill="#ff2e88"/>
    <rect x="430" y="188" width="418" height="16" fill="#f9e547"/>
    <text x="640" y="204" text-anchor="middle" font-family="monospace" font-size="28" font-weight="700" fill="#050511">REVERIE ARCADE</text>
    <rect x="450" y="252" width="152" height="268" fill="#171b34"/>
    <rect x="624" y="252" width="174" height="268" fill="#0a0a1a"/>
    <rect x="646" y="284" width="130" height="236" fill="#050511"/>
    <rect x="648" y="286" width="126" height="8" fill="#00fff5"/>
    <rect x="648" y="512" width="126" height="8" fill="#00fff5"/>
    <rect x="468" y="276" width="116" height="58" fill="#00fff5" opacity=".78"/>
    <rect x="468" y="366" width="116" height="58" fill="#b14dff" opacity=".74"/>
  </g>
  <g>
    <rect x="846" y="408" width="56" height="76" fill="#171b34"/>
    <rect x="854" y="416" width="40" height="20" fill="#00fff5"/>
    <rect x="862" y="452" width="24" height="6" fill="#ff2e88"/>
    <circle cx="886" cy="466" r="6" fill="#f9e547"/>
  </g>
  <g opacity=".75">
    <rect x="0" y="0" width="1280" height="720" fill="url(#rain)"/>
  </g>
  <g opacity=".42">
    <rect x="500" y="570" width="280" height="16" fill="#ff2e88"/>
    <rect x="530" y="620" width="220" height="10" fill="#00fff5"/>
    <rect x="610" y="680" width="70" height="8" fill="#f9e547"/>
  </g>
  <defs>
    <pattern id="rain" width="32" height="32" patternUnits="userSpaceOnUse">
      <rect width="32" height="32" fill="transparent"/>
      <rect x="6" y="0" width="2" height="14" fill="#00fff5" opacity=".2"/>
      <rect x="24" y="12" width="2" height="16" fill="#ff2e88" opacity=".14"/>
    </pattern>
  </defs>
</svg>
