<svg xmlns="http://www.w3.org/2000/svg" viewBox="0 0 1280 720" shape-rendering="crispEdges">
  <rect width="1280" height="720" fill="#050511"/>
  <rect y="0" width="1280" height="160" fill="#0f0f23"/>
  <rect y="160" width="1280" height="396" fill="#08091a"/>
  <rect y="556" width="1280" height="164" fill="#11162c"/>
  <path d="M0 556h1280v16H0z" fill="#00fff5" opacity=".16"/>
  <g opacity=".22">
    <path d="M0 608h1280v8H0z" fill="#ff2e88"/>
    <path d="M0 672h1280v6H0z" fill="#00fff5"/>
    <path d="M80 556v164h6V556zM214 556v164h6V556zM348 556v164h6V556zM482 556v164h6V556zM616 556v164h6V556zM750 556v164h6V556zM884 556v164h6V556zM1018 556v164h6V556zM1152 556v164h6V556z" fill="#b14dff"/>
  </g>
  <g>
    <rect x="80" y="218" width="132" height="300" fill="#1a1d36"/>
    <rect x="96" y="238" width="100" height="86" fill="#00fff5"/>
    <rect x="112" y="254" width="68" height="54" fill="#050511"/>
    <rect x="102" y="356" width="88" height="36" fill="#ff2e88"/>
    <rect x="116" y="414" width="24" height="24" fill="#f9e547"/>
    <rect x="158" y="414" width="18" height="18" fill="#39ff14"/>
    <rect x="88" y="518" width="116" height="38" fill="#0a0a1a"/>
  </g>
  <g>
    <rect x="290" y="188" width="168" height="348" fill="#1c203d"/>
    <rect x="306" y="214" width="136" height="114" fill="#0a0a1a"/>
    <rect x="322" y="230" width="104" height="78" fill="#f9e547"/>
    <rect x="330" y="238" width="88" height="62" fill="#141933"/>
    <rect x="316" y="358" width="116" height="44" fill="#00fff5"/>
    <rect x="338" y="428" width="34" height="34" fill="#ff2e88"/>
    <rect x="392" y="428" width="24" height="24" fill="#b14dff"/>
    <rect x="304" y="536" width="140" height="44" fill="#050511"/>
  </g>
  <g>
    <rect x="520" y="216" width="142" height="310" fill="#171b34"/>
    <rect x="536" y="238" width="110" height="92" fill="#b14dff"/>
    <circle cx="591" cy="284" r="28" fill="#050511"/>
    <rect x="546" y="360" width="92" height="38" fill="#f9e547"/>
    <rect x="558" y="430" width="24" height="24" fill="#00fff5"/>
    <rect x="604" y="430" width="24" height="24" fill="#ff2e88"/>
    <rect x="530" y="526" width="122" height="38" fill="#0a0a1a"/>
  </g>
  <g>
    <rect x="720" y="190" width="170" height="350" fill="#202443"/>
    <rect x="738" y="212" width="134" height="118" fill="#00fff5"/>
    <rect x="754" y="230" width="102" height="82" fill="#08091a"/>
    <text x="805" y="278" text-anchor="middle" font-family="monospace" font-size="24" font-weight="700" fill="#f9e547">ADV</text>
    <rect x="750" y="360" width="110" height="44" fill="#ff2e88"/>
    <rect x="772" y="432" width="30" height="30" fill="#f9e547"/>
    <rect x="820" y="432" width="24" height="24" fill="#39ff14"/>
    <rect x="736" y="540" width="138" height="46" fill="#050511"/>
  </g>
  <g>
    <rect x="972" y="204" width="126" height="316" fill="#161a34"/>
    <rect x="988" y="226" width="94" height="92" fill="#ff2e88"/>
    <rect x="1008" y="246" width="54" height="52" fill="#050511"/>
    <rect x="996" y="350" width="78" height="34" fill="#00fff5"/>
    <rect x="1012" y="416" width="22" height="22" fill="#f9e547"/>
    <rect x="1050" y="416" width="18" height="18" fill="#b14dff"/>
  </g>
  <g opacity=".36">
    <rect x="0" y="0" width="1280" height="720" fill="url(#scan)"/>
  </g>
  <defs>
    <pattern id="scan" width="8" height="8" patternUnits="userSpaceOnUse">
      <rect width="8" height="1" fill="#000"/>
    </pattern>
  </defs>
</svg>
